Filename:
Casino Jack DVDRiP AC3 XViD - IMAGiNE
 
http://www.imdb.com/title/tt1194417/

[IMG]http://imagine.takagari.com/casino%20jack/vlcsnap-65843.png[/IMG]
[IMG]http://imagine.takagari.com/casino%20jack/vlcsnap-66517.png[/IMG]
[IMG]http://imagine.takagari.com/casino%20jack/vlcsnap-66957.png[/IMG]
[IMG]http://imagine.takagari.com/casino%20jack/vlcsnap-67597.png[/IMG]
[IMG]http://imagine.takagari.com/casino%20jack/vlcsnap-67978.png[/IMG]

DETAILS:

Video
ID                               : 0
Format                           : MPEG-4 Visual
Format profile                   : Advanced Simple@L5
Format settings, BVOP            : Yes
Format settings, QPel            : No
Format settings, GMC             : No warppoints
Format settings, Matrix          : Default (H.263)
Muxing mode                      : Packed bitstream
Codec ID                         : XVID
Codec ID/Hint                    : XviD
Duration                         : 1h 43mn
Bit rate                         : 1 455 Kbps
Width                            : 720 pixels
Height                           : 400 pixels
Display aspect ratio             : 16:9
Frame rate                       : 25.000 fps
Color space                      : YUV
Chroma subsampling               : 4:2:0
Bit depth                        : 8 bits
Scan type                        : Progressive
Bits/(Pixel*Frame)               : 0.202
Stream size                      : 1.05 GiB (76%)
Writing library                  : XviD 1.1.2 (UTC 2006-11-01)

Audio
ID                               : 1
Format                           : AC-3
Format/Info                      : Audio Coding 3
Mode extension                   : CM (complete main)
Codec ID                         : 2000
Duration                         : 1h 43mn
Bit rate mode                    : Constant
Bit rate                         : 448 Kbps
Channel(s)                       : 6 channels
Channel positions                : Front: L C R, Side: L R, LFE
Sampling rate                    : 48.0 KHz
Bit depth                        : 16 bits
Stream size                      : 332 MiB (23%)
Alignment                        : Aligned on interleaves
Interleave, duration             : 40 ms (1.00 video frame)
Interleave, preload duration     : 512 ms



SOURCES:

VIDEO:Casino.Jack.2010.DVD-R.HIVE-CM8 ................ Thanks
AUDIO:Casino.Jack.2010.DVD-R.HIVE-CM8 ................ Thanks

NOTES:

IMAGiNE bringing you another release..........Casino Jack 2010

Here we go with a pretty much straight forward rip with a few tweaks here and there
Audio is just taken from the dvdr and muxed to our rip so

Now after doing this we have seen the same film labelled a R5 ....But we tagged it dvdrip as thats what
the source says and it looks and sounds like one to us so ...

Anyway enjoy folks ;-)
